<?xml version="1.0" standalone="no"?>
<!DOCTYPE svg PUBLIC "-//W3C//DTD SVG 20010904//EN"
 "http://www.w3.org/TR/2001/REC-SVG-20010904/DTD/svg10.dtd">
<svg version="1.0" xmlns="http://www.w3.org/2000/svg"
 width="834.000000pt" height="684.000000pt" viewBox="0 0 834.000000 684.000000"
 preserveAspectRatio="xMidYMid meet">

<g transform="translate(0.000000,684.000000) scale(0.100000,-0.100000)"
fill="#000000" stroke="none">
<path d="M3765 4940 c-26 -27 -27 -34 -22 -86 3 -32 13 -64 23 -75 24 -26 90
-42 144 -35 39 5 47 3 62 -16 l18 -23 0 22 c1 103 -55 188 -146 223 l-51 19
-28 -29z"/>
<path d="M4585 4944 c-81 -30 -136 -116 -135 -213 1 -35 1 -35 14 -13 11 21
20 23 93 25 105 3 127 20 137 108 12 100 -19 126 -109 93z"/>
<path d="M5300 1867 c0 -107 -3 -356 -7 -555 l-6 -362 219 0 c285 0 364 12
464 72 68 41 124 114 152 198 29 89 38 408 14 513 -31 135 -93 217 -198 267
-81 38 -153 48 -415 55 l-223 5 0 -193z m435 -48 c51 -14 100 -64 116 -120 17
-57 17 -319 1 -375 -29 -98 -86 -141 -201 -151 l-71 -6 0 332 0 331 58 0 c31
0 75 -5 97 -11z"/>
<path d="M6320 1502 l0 -549 173 -6 c94 -4 263 -7 375 -7 l202 0 0 109 0 108
-61 7 c-34 3 -140 6 -236 6 l-174 0 3 113 3 112 206 3 206 2 7 68 c3 37 6 86
6 110 l0 42 -210 0 -210 0 0 100 0 100 225 0 225 0 0 115 0 115 -370 0 -370 0
0 -548z"/>
<path d="M7169 2044 c0 -5 57 -255 128 -556 l128 -548 236 0 235 0 134 538
c73 295 135 543 138 550 3 9 -29 12 -141 12 -130 0 -146 -2 -151 -17 -2 -10
-46 -200 -96 -423 -109 -481 -97 -440 -119 -440 -15 0 -31 64 -111 438 -51
240 -94 438 -94 438 -4 7 -286 14 -287 8z"/>
</g>
</svg>
